<svg xmlns="http://www.w3.org/2000/svg" xmlns:xlink="http://www.w3.org/1999/xlink" width="127.66mm" height="36.84mm" viewBox="0 0 361.88 104.42"><defs><style>.a{isolation:isolate;}.b{fill:url(#a);}.c{fill:url(#b);}.d{fill:url(#c);}.e{fill:url(#d);}.f{fill:url(#e);}.g{opacity:0.4;mix-blend-mode:multiply;fill:url(#f);}</style><linearGradient id="a" x1="157.58" y1="112.34" x2="157.58" y2="50.59" gradientUnits="userSpaceOnUse"><stop offset="0" stop-color="#1d1d1b"/><stop offset="0.21" stop-color="#2e2d2c"/><stop offset="0.4" stop-color="#1a1a1a"/><stop offset="0.45" stop-color="#333"/><stop offset="1"/></linearGradient><linearGradient id="b" x1="308.8" y1="42.08" x2="375.66" y2="108.94" gradientUnits="userSpaceOnUse"><stop offset="0" stop-color="#dadada"/><stop offset="0.18" stop-color="#f6f6f6"/><stop offset="0.33" stop-color="#d9d9d9"/><stop offset="0.49" stop-color="#f6f6f6"/><stop offset="0.62" stop-color="#dadada"/><stop offset="0.79" stop-color="#f6f6f6"/><stop offset="1" stop-color="#c6c6c6"/></linearGradient><linearGradient id="c" x1="347.62" y1="39.35" x2="394.48" y2="86.21" gradientUnits="userSpaceOnUse"><stop offset="0.28" stop-color="#ffed00"/><stop offset="1" stop-color="#eab500"/></linearGradient><linearGradient id="d" x1="305.2" y1="78.2" x2="354.32" y2="127.33" gradientUnits="userSpaceOnUse"><stop offset="0.28" stop-color="#36a9e1"/><stop offset="1" stop-color="#005ea1"/></linearGradient><linearGradient id="e" x1="286.06" y1="24.49" x2="369.04" y2="107.48" gradientUnits="userSpaceOnUse"><stop offset="0" stop-color="#ba0066"/><stop offset="0.52" stop-color="#e6007e"/><stop offset="1" stop-color="#ba0066"/></linearGradient><linearGradient id="f" x1="327.41" y1="60.65" x2="392.24" y2="60.65" gradientUnits="userSpaceOnUse"><stop offset="0" stop-color="#3c3c3b"/><stop offset="0.45" stop-color="#eaeaea"/><stop offset="0.63" stop-color="#fff"/></linearGradient></defs><title>booklet-logo</title><g class="a"><path class="b" d="M111.21,74.57a19.36,19.36,0,0,0-6.78-4.41,24,24,0,0,0-8.87-1.56,23.69,23.69,0,0,0-8.83,1.56A19,19,0,0,0,75.64,81.47a25.48,25.48,0,0,0-1.53,9,25.13,25.13,0,0,0,1.53,9,19.05,19.05,0,0,0,11.08,11.28,23.69,23.69,0,0,0,8.83,1.57,24,24,0,0,0,8.87-1.57,19,19,0,0,0,11.12-11.28,25.14,25.14,0,0,0,1.53-9,25.49,25.49,0,0,0-1.53-9A19.46,19.46,0,0,0,111.21,74.57Zm-6,20.79a12.93,12.93,0,0,1-1.65,4.25,8.66,8.66,0,0,1-3.13,3,9.65,9.65,0,0,1-4.86,1.12,9.42,9.42,0,0,1-4.82-1.12,8.75,8.75,0,0,1-3.09-3A12.91,12.91,0,0,1,86,95.36a24.27,24.27,0,0,1-.48-4.86,24.9,24.9,0,0,1,.48-4.9,12.51,12.51,0,0,1,1.65-4.25,8.77,8.77,0,0,1,7.91-4.17,9.39,9.39,0,0,1,4.86,1.16,9.15,9.15,0,0,1,3.13,3,12.53,12.53,0,0,1,1.65,4.25,24.9,24.9,0,0,1,.48,4.9A24.27,24.27,0,0,1,105.19,95.36Zm50.72-20.79a19.36,19.36,0,0,0-6.78-4.41,24,24,0,0,0-8.87-1.56,23.69,23.69,0,0,0-8.83,1.56,19,19,0,0,0-11.08,11.32,25.48,25.48,0,0,0-1.52,9,25.13,25.13,0,0,0,1.52,9,19.05,19.05,0,0,0,11.08,11.28,23.69,23.69,0,0,0,8.83,1.57,24,24,0,0,0,8.87-1.57,19,19,0,0,0,11.12-11.28,25.14,25.14,0,0,0,1.53-9,25.49,25.49,0,0,0-1.53-9A19.46,19.46,0,0,0,155.91,74.57Zm-6,20.79a12.93,12.93,0,0,1-1.65,4.25,8.66,8.66,0,0,1-3.13,3,9.64,9.64,0,0,1-4.86,1.12,9.41,9.41,0,0,1-4.82-1.12,8.75,8.75,0,0,1-3.09-3,12.91,12.91,0,0,1-1.65-4.25,24.27,24.27,0,0,1-.48-4.86,24.9,24.9,0,0,1,.48-4.9,12.51,12.51,0,0,1,1.65-4.25,8.77,8.77,0,0,1,7.91-4.17,9.39,9.39,0,0,1,4.86,1.16,9.15,9.15,0,0,1,3.13,3,12.53,12.53,0,0,1,1.65,4.25,24.9,24.9,0,0,1,.48,4.9A24.27,24.27,0,0,1,149.89,95.36ZM203.1,69.71H189.62L175.25,84.64V53.9h-11.4v57.32h11.4V96.93l4.41-4.25,11.4,18.54h13.81L187.45,85Zm3.09,41.5h11.4V53.9h-11.4v57.32Zm51.26-35.08a18.46,18.46,0,0,0-6.46-5.5,19.73,19.73,0,0,0-9.23-2,21.5,21.5,0,0,0-8.63,1.68,20.07,20.07,0,0,0-11,11.56,24.24,24.24,0,0,0-1.52,8.67A25.26,25.26,0,0,0,222,99.33a20,20,0,0,0,4.21,6.9,18.78,18.78,0,0,0,6.66,4.5,23.19,23.19,0,0,0,8.83,1.6,21.35,21.35,0,0,0,12-3.29q5-3.29,7.38-10.68h-10a7.17,7.17,0,0,1-3.05,3.65,10.16,10.16,0,0,1-5.94,1.73q-4.82,0-7.39-2.53t-2.81-8H261.9a29.37,29.37,0,0,0-.8-9.23A22.62,22.62,0,0,0,257.44,76.13ZM232,86a13,13,0,0,1,.52-2.73A8.4,8.4,0,0,1,234,80.39a8.65,8.65,0,0,1,2.89-2.29,9.92,9.92,0,0,1,4.54-.92q4.17,0,6.22,2.25A13.18,13.18,0,0,1,250.5,86H232Zm52.84-8.67V69.71h-8.35V57.27h-11.4v44.55a10.59,10.59,0,0,0,1,5.06,7.71,7.71,0,0,0,2.85,3,11.35,11.35,0,0,0,4.17,1.45,33.35,33.35,0,0,0,5,.36q1.68,0,3.45-.08a27.26,27.26,0,0,0,3.21-.32v-8.91a18,18,0,0,1-3.53.32q-2.89,0-3.85-1t-1-3.85V77.34h8.35ZM66.69,73.81A15.82,15.82,0,0,0,55,68.59a19.15,19.15,0,0,0-7.43,1.48,12.17,12.17,0,0,0-5.66,4.7H41.77V57.18l-11.4-6.58v60.62H41.21v-5.3h0.16a10.57,10.57,0,0,0,5.46,4.94A21.39,21.39,0,0,0,55,112.34a15.81,15.81,0,0,0,6.18-1.28,15.6,15.6,0,0,0,5.5-4,20.61,20.61,0,0,0,4-6.82,28.46,28.46,0,0,0,1.53-9.83,28.47,28.47,0,0,0-1.53-9.83A20.13,20.13,0,0,0,66.69,73.81ZM60.23,95.48a13.21,13.21,0,0,1-1.77,4.26,9.11,9.11,0,0,1-3.05,2.93,9.3,9.3,0,0,1-8.71,0,9.25,9.25,0,0,1-3-2.93,13.19,13.19,0,0,1-1.77-4.26,21.8,21.8,0,0,1-.56-5,22.17,22.17,0,0,1,.56-5.06,13.2,13.2,0,0,1,1.77-4.25,9.25,9.25,0,0,1,3-2.93,9.29,9.29,0,0,1,8.71,0,9.11,9.11,0,0,1,3.05,2.93,13.22,13.22,0,0,1,1.77,4.25,22.23,22.23,0,0,1,.56,5.06A21.85,21.85,0,0,1,60.23,95.48Z" transform="translate(-30.37 -21.11)"/><path class="c" d="M349.17,39.38a42.86,42.86,0,0,0-21.79,5.92c-1.6-17.28-20.23-23.07-21.79-23.8-2-.91-2.74-0.19-2.27,2,0.77,3.59,2.77,17,2.77,25.31V82.45A43.07,43.07,0,1,0,349.17,39.38Zm0,64.74a21.66,21.66,0,1,1,21.66-21.66A21.66,21.66,0,0,1,349.17,104.11Z" transform="translate(-30.37 -21.11)"/><path class="d" d="M392.24,82.45a43.07,43.07,0,0,0-37.37-42.69c1.12,10.56,3.63,19.06,7.59,25.59a21.73,21.73,0,0,1,6.15,7.55,31.69,31.69,0,0,0,6.37,4.5c9.57,5.14,13.72,14,13.65,22.3A42.92,42.92,0,0,0,392.24,82.45Z" transform="translate(-30.37 -21.11)"/><path class="e" d="M346.35,103.92A21.66,21.66,0,0,1,327.53,83.3C319.4,75.43,312.71,64,306.1,58V82.45a43.09,43.09,0,0,0,31.53,41.5C345.63,118.77,347.87,111,346.35,103.92Z" transform="translate(-30.37 -21.11)"/><path class="f" d="M370.83,82.55a21.65,21.65,0,0,1-10.38,18.39c0.22,4.94-2,10.78-8.13,17.4a55.73,55.73,0,0,1-7.6,7,43.13,43.13,0,0,0,27-6.11c3.35-5,6.35-10.73,7.35-16.33C380.57,94.14,376.7,88.13,370.83,82.55Zm-27-36.38a61.71,61.71,0,0,1-.35-6.42,42.76,42.76,0,0,0-16.08,5.54c-1.6-17.28-20.23-23.07-21.79-23.8-2-.91-2.74-0.19-2.27,2,0.4,1.88,1.15,6.48,1.76,11.62,14.11,6.9,14.11,23.4,21,33.47A39.33,39.33,0,0,0,329.67,73,21.66,21.66,0,0,1,349,60.79,36.25,36.25,0,0,1,343.82,46.18Z" transform="translate(-30.37 -21.11)"/><path class="g" d="M349.18,39.35a42.87,42.87,0,0,0-21.78,5.91l0.16,35.85a21.66,21.66,0,0,1,43.27.82h21.41A43.07,43.07,0,0,0,349.18,39.35Z" transform="translate(-30.37 -21.11)"/></g></svg>