<svg xmlns="http://www.w3.org/2000/svg" xmlns:xlink="http://www.w3.org/1999/xlink" width="57.88mm" height="67.86mm" viewBox="0 0 164.06 192.37"><defs><style>.a{isolation:isolate;}.b{fill:url(#a);}.c{fill:url(#b);}.d{fill:url(#c);}.e{fill:url(#d);}.f{opacity:0.4;mix-blend-mode:multiply;fill:url(#e);}</style><linearGradient id="a" x1="48.77" y1="70.01" x2="171.95" y2="193.19" gradientUnits="userSpaceOnUse"><stop offset="0" stop-color="#dadada"/><stop offset="0.18" stop-color="#f6f6f6"/><stop offset="0.33" stop-color="#d9d9d9"/><stop offset="0.49" stop-color="#f6f6f6"/><stop offset="0.62" stop-color="#dadada"/><stop offset="0.79" stop-color="#f6f6f6"/><stop offset="1" stop-color="#c6c6c6"/></linearGradient><linearGradient id="b" x1="120.3" y1="64.99" x2="206.62" y2="151.31" gradientUnits="userSpaceOnUse"><stop offset="0.28" stop-color="#ffed00"/><stop offset="1" stop-color="#eab500"/></linearGradient><linearGradient id="c" x1="42.14" y1="136.56" x2="132.64" y2="227.06" gradientUnits="userSpaceOnUse"><stop offset="0.28" stop-color="#36a9e1"/><stop offset="1" stop-color="#005ea1"/></linearGradient><linearGradient id="d" x1="6.87" y1="37.61" x2="159.76" y2="190.5" gradientUnits="userSpaceOnUse"><stop offset="0" stop-color="#ba0066"/><stop offset="0.52" stop-color="#e6007e"/><stop offset="1" stop-color="#ba0066"/></linearGradient><linearGradient id="e" x1="83.05" y1="104.22" x2="202.5" y2="104.22" gradientUnits="userSpaceOnUse"><stop offset="0" stop-color="#3c3c3b"/><stop offset="0.45" stop-color="#eaeaea"/><stop offset="0.63" stop-color="#fff"/></linearGradient></defs><title>booklet-logo-glyph</title><g class="a"><path class="b" d="M123.15,65A79,79,0,0,0,83,75.94c-3-31.83-37.27-42.51-40.15-43.85-3.6-1.68-5-.35-4.18,3.71,1.42,6.61,5.1,31.32,5.1,46.64v62A79.36,79.36,0,1,0,123.15,65Zm0,119.26a39.91,39.91,0,1,1,39.91-39.91A39.91,39.91,0,0,1,123.15,184.3Z" transform="translate(-38.44 -31.37)"/><path class="c" d="M202.5,144.39a79.35,79.35,0,0,0-68.84-78.64c2.07,19.45,6.68,35.11,14,47.15A40,40,0,0,1,159,126.82a58.44,58.44,0,0,0,11.73,8.29C188.34,144.58,196,161,195.85,176.2A79.07,79.07,0,0,0,202.5,144.39Z" transform="translate(-38.44 -31.37)"/><path class="d" d="M118,183.95a39.9,39.9,0,0,1-34.67-38C68.3,131.45,56,110.33,43.79,99.3v45.09a79.37,79.37,0,0,0,58.09,76.45C116.62,211.3,120.75,197,118,183.95Z" transform="translate(-38.44 -31.37)"/><path class="e" d="M163.05,144.58a39.88,39.88,0,0,1-19.12,33.88c0.41,9.1-3.67,19.87-15,32.05a102.54,102.54,0,0,1-14,12.8,79.45,79.45,0,0,0,49.65-11.26c6.18-9.18,11.71-19.76,13.54-30.09C181,165.93,173.86,154.85,163.05,144.58Zm-49.77-67a113.69,113.69,0,0,1-.65-11.83A78.78,78.78,0,0,0,83,75.94c-3-31.83-37.27-42.51-40.15-43.85-3.6-1.68-5-.35-4.18,3.71,0.74,3.47,2.11,11.93,3.25,21.4,26,12.71,26,43.1,38.75,61.66A72.26,72.26,0,0,0,87.22,127a39.9,39.9,0,0,1,35.54-22.51A66.76,66.76,0,0,1,113.29,77.56Z" transform="translate(-38.44 -31.37)"/><path class="f" d="M123.17,65a79,79,0,0,0-40.12,10.9l0.29,66a39.9,39.9,0,0,1,79.72,1.51H202.5A79.34,79.34,0,0,0,123.17,65Z" transform="translate(-38.44 -31.37)"/></g></svg>